<svg xmlns="http://www.w3.org/2000/svg" xml:space="preserve" width="296.6749" height="100" viewBox="0 0 296.67489 99.999998"><path d="M0 0c-.935 9.139-11.338 16.622-23.238 16.721C-35.145 16.816-44.034 9.49-43.1.352c.935-9.136 11.34-16.627 23.243-16.728C-7.957-16.469.939-9.144 0 0m-39.366 2.284c-.811 7.37 6.916 13.284 17.252 13.203 10.339-.084 19.38-6.118 20.19-13.482.81-7.381-6.907-13.279-17.249-13.198-10.338.075-19.383 6.113-20.193 13.477" style="fill:#f7bb82;fill-opacity:1;fill-rule:nonzero;stroke:none" transform="matrix(1.7639 0 0 -1.7639 110.156 55.292)"/><path d="M0 0c-6.814-7.118-6.923-18.068-.252-24.459 6.675-6.391 17.617-5.798 24.428 1.32 6.816 7.116 6.93 18.068.25 24.458C17.753 7.712 6.814 7.119 0 0m21.719-20.1c-5.86-6.132-15.272-6.638-21.016-1.139-5.745 5.5-5.647 14.919.22 21.045C6.786 5.928 16.198 6.437 21.937.941c5.741-5.499 5.647-14.92-.218-21.041" style="fill:#f4a052;fill-opacity:1;fill-rule:nonzero;stroke:none" transform="matrix(1.7639 0 0 -1.7639 40.155 49.04)"/><path d="M0 0c-12.647-10.014-15.867-24.53-7.192-32.408 8.674-7.887 25.963-6.158 38.614 3.858C44.074-18.541 47.295-4.029 38.614 3.857 29.933 11.743 12.649 10.016 0 0m11.325 3.924c12.192 4.567 24.248-.052 26.926-10.319 2.682-10.275-5.028-22.304-17.221-26.87-12.192-4.575-24.25.048-26.928 10.322C-8.581-12.678-.866-.646 11.325 3.924" style="fill:#ed7100;fill-opacity:1;fill-rule:nonzero;stroke:none" transform="matrix(1.7639 0 0 -1.7639 21.28 15.53)"/><path d="M0 0h3.217v-2.439H0v-7.862h-3.088V5.708H0Zm-13.025-6.824c.813 0 1.509.224 2.088.675.58.449.87 1.012.87 1.686 0 .657-.29 1.21-.87 1.66-.579.45-1.275.675-2.088.675-.813 0-1.509-.225-2.088-.675-.58-.45-.869-1.003-.869-1.66 0-.674.289-1.237.869-1.686.579-.451 1.275-.675 2.088-.675m-3.581 12.921h7.162V3.84h-7.162zm4.645-20.238H.104v-2.387h-12.817c-2.768 0-4.152 1.289-4.152 3.866v2.491h3.114v-2.128c0-1.228.597-1.842 1.79-1.842m-1.064 5.137c-1.764 0-3.2.446-4.307 1.337-1.107.89-1.661 1.958-1.661 3.204 0 1.228.554 2.287 1.661 3.179 1.107.89 2.543 1.336 4.307 1.336 1.764 0 3.2-.446 4.307-1.336 1.106-.892 1.661-1.951 1.661-3.179 0-1.246-.555-2.314-1.661-3.204-1.107-.891-2.543-1.337-4.307-1.337m6.98 9.808h-13.959v2.232h13.959z" style="fill:#231916;fill-opacity:1;fill-rule:nonzero;stroke:none" transform="matrix(1.7639 0 0 -1.7639 160.563 40.754)"/><path d="M0 0c.812 0 1.508.225 2.088.675.579.449.869 1.012.869 1.686 0 .657-.29 1.211-.869 1.661-.58.449-1.276.675-2.088.675-.814 0-1.51-.226-2.089-.675-.58-.45-.869-1.004-.869-1.661 0-.674.289-1.237.869-1.686C-1.51.225-.814 0 0 0m-3.581 12.921H3.58v-2.257h-7.161ZM6.927 7.628H-7.031V9.86H6.927Zm-8.458-9.677c-1.107.19-2.05.604-2.829 1.245-1.072.882-1.608 1.937-1.608 3.165s.554 2.287 1.661 3.179C-3.201 6.43-1.765 6.876 0 6.876c1.764 0 3.2-.446 4.306-1.336 1.107-.892 1.662-1.951 1.662-3.179 0-1.228-.537-2.283-1.609-3.165-.761-.623-1.688-1.038-2.777-1.245v-2.362h3.451c3.114 0 4.67 1.202 4.67 3.607v13.336h3.088V5.06h3.217V2.595h-3.217V-9.756H9.703v4.178c-.933-.83-2.317-1.246-4.151-1.246H-7.525v2.413h5.994z" style="fill:#231916;fill-opacity:1;fill-rule:nonzero;stroke:none" transform="matrix(1.7639 0 0 -1.7639 183.218 52.792)"/><path d="M0 0c0 1.194-.554 2.18-1.662 2.958-1.106.778-2.525 1.168-4.254 1.168-1.747 0-3.171-.39-4.269-1.168-1.098-.778-1.647-1.764-1.647-2.958 0-1.193.549-2.179 1.647-2.958 1.098-.778 2.522-1.167 4.269-1.167 1.729 0 3.148.389 4.254 1.167C-.554-2.179 0-1.193 0 0m-15.023 0c0 1.816.83 3.36 2.49 4.631 1.661 1.272 3.867 1.907 6.617 1.907S-.96 5.903.7 4.631C2.361 3.36 3.19 1.816 3.19 0c0-1.816-.829-3.356-2.49-4.618-1.332-1.021-3.01-1.635-5.033-1.843v-4.203h9.808v-2.465H-17.28v2.465h9.781v4.203c-2.024.208-3.702.822-5.034 1.843-1.66 1.262-2.49 2.802-2.49 4.618" style="fill:#231916;fill-opacity:1;fill-rule:nonzero;stroke:none" transform="matrix(1.7639 0 0 -1.7639 245.642 42.769)"/><path d="M0 0h3.087v-16.009H0v6.434h-5.553v2.362H0v2.179h-5.553v2.361H0Zm-8.718-19.823H3.347v-2.413H-9.471c-2.768 0-4.151 1.289-4.151 3.866v3.451h3.113v-3.062c0-1.228.597-1.842 1.791-1.842m-.701 18.084c0-3.148.718-5.578 2.153-7.291 1.142-1.349 2.353-2.231 3.633-2.646v-2.413c-1.99.311-3.84 1.323-5.552 3.036a10.385 10.385 0 0 0-1.765 2.36 10.352 10.352 0 0 0-1.764-2.36c-1.712-1.713-3.564-2.725-5.552-3.036v2.413c1.28.415 2.491 1.297 3.632 2.646 1.436 1.713 2.154 4.143 2.154 7.291v1.401h3.061z" style="fill:#231916;fill-opacity:1;fill-rule:nonzero;stroke:none" transform="matrix(1.7639 0 0 -1.7639 290.771 30.686)"/></svg>